<svg width="20" height="21" viewBox="0 0 20 21" fill="none" xmlns="http://www.w3.org/2000/svg">
<g clip-path="url(#clip0_7675_3934)">
<path d="M10 0.5C4.47833 0.5 0 4.97833 0 10.5C0 16.0217 4.47833 20.5 10 20.5C15.5217 20.5 20 16.0217 20 10.5C20 4.97833 15.5242 0.5 10 0.5ZM4.93333 10.8358L4.97583 10.7683L7.57833 6.69833C7.58705 6.68495 7.5992 6.67416 7.61351 6.66708C7.62782 6.66 7.64378 6.6569 7.6597 6.65809C7.67562 6.65928 7.69093 6.66473 7.70403 6.67386C7.71713 6.68299 7.72754 6.69547 7.73417 6.71C8.1675 7.68417 8.54417 8.89583 8.3675 9.65C8.29417 9.96 8.08833 10.38 7.85583 10.7683C7.82655 10.8254 7.794 10.8808 7.75833 10.9342C7.75026 10.9465 7.73907 10.9564 7.72589 10.963C7.71272 10.9696 7.69803 10.9726 7.68333 10.9717H5.01083C4.99488 10.9719 4.97916 10.9678 4.96534 10.9599C4.95152 10.9519 4.94012 10.9403 4.93234 10.9264C4.92456 10.9125 4.9207 10.8967 4.92117 10.8808C4.92164 10.8648 4.92642 10.8493 4.935 10.8358H4.93333ZM16.5283 12.2358C16.5284 12.2536 16.5234 12.271 16.5138 12.286C16.5041 12.3009 16.4904 12.3127 16.4742 12.32C16.2717 12.4058 15.5825 12.7242 15.2958 13.1217C14.5642 14.14 14.0058 15.5967 12.7558 15.5967H7.54417C7.10417 15.5959 6.66863 15.5085 6.26243 15.3394C5.85623 15.1702 5.48732 14.9228 5.17677 14.6111C4.86623 14.2993 4.62013 13.9295 4.45253 13.5227C4.28493 13.1159 4.19912 12.68 4.2 12.24V12.18C4.2 12.1317 4.24 12.0917 4.29 12.0917H7.19417C7.2525 12.0917 7.29417 12.1442 7.29 12.2017C7.26833 12.39 7.30417 12.5842 7.39417 12.76C7.56583 13.11 7.92417 13.3283 8.31 13.3283H9.74833V12.2058H8.325C8.30832 12.2057 8.29201 12.2009 8.27781 12.1922C8.26362 12.1834 8.25209 12.1709 8.24446 12.1561C8.23683 12.1413 8.23339 12.1246 8.23451 12.108C8.23564 12.0914 8.24128 12.0753 8.25083 12.0617L8.30333 11.9867C8.43667 11.7942 8.62917 11.4983 8.82083 11.16C8.95083 10.9317 9.0775 10.6883 9.17917 10.4433C9.19806 10.3989 9.21611 10.3544 9.23333 10.31C9.26083 10.2317 9.28917 10.1583 9.30917 10.0858C9.32866 10.0243 9.34672 9.96235 9.36333 9.9C9.41083 9.69167 9.43083 9.47167 9.43083 9.24417C9.43083 9.15417 9.4275 9.06 9.41917 8.97167C9.415 8.87417 9.4025 8.77583 9.39083 8.67833C9.38207 8.59102 9.36872 8.50424 9.35083 8.41833C9.32806 8.28744 9.30082 8.15737 9.26917 8.02833L9.2575 7.97833C9.2325 7.88833 9.21083 7.80333 9.1825 7.71417C9.10298 7.44039 9.01178 7.17015 8.90917 6.90417C8.87351 6.80408 8.83403 6.7054 8.79083 6.60833C8.73083 6.46 8.66917 6.32583 8.61333 6.2C8.58573 6.146 8.55961 6.09126 8.535 6.03583C8.50779 5.976 8.47917 5.91681 8.44917 5.85833C8.42917 5.81417 8.405 5.77167 8.38917 5.73167L8.21333 5.40833C8.18917 5.36417 8.22917 5.31 8.2775 5.32417L9.3775 5.62167H9.38583L9.53 5.66333L9.69 5.70833L9.74833 5.72417V5.07167C9.74833 4.75583 10 4.5 10.3142 4.5C10.3884 4.4998 10.4618 4.51461 10.5301 4.54354C10.5984 4.57247 10.6602 4.61492 10.7117 4.66833C10.8173 4.77615 10.8771 4.92072 10.8783 5.07167V6.04167L10.9958 6.07417C11.0047 6.07806 11.0133 6.08278 11.0217 6.08833C11.0506 6.10889 11.0914 6.13944 11.1442 6.18C11.1853 6.21278 11.2311 6.25083 11.2817 6.29417C11.4464 6.42802 11.606 6.56813 11.76 6.71417C11.9383 6.88 12.1383 7.07417 12.33 7.29C12.3842 7.35167 12.4358 7.41167 12.49 7.47833C12.5417 7.54417 12.6 7.60833 12.6483 7.67167C12.7142 7.75833 12.7817 7.84833 12.8442 7.94167C12.8717 7.98583 12.9058 8.03167 12.9317 8.07583C13.0117 8.19417 13.08 8.31583 13.1458 8.43833C13.1742 8.49417 13.2017 8.55583 13.2258 8.61583C13.3 8.78 13.3583 8.94583 13.3942 9.11417C13.4047 9.15025 13.4128 9.187 13.4183 9.22417V9.2325C13.43 9.28 13.4342 9.3325 13.4383 9.38583C13.4607 9.63212 13.4306 9.88036 13.35 10.1142C13.3242 10.1842 13.3 10.2558 13.2683 10.3258C13.2058 10.4675 13.1342 10.6117 13.0483 10.7442C13.02 10.7942 12.9858 10.8458 12.9542 10.8958C12.9183 10.9483 12.88 10.9983 12.8483 11.0458C12.8024 11.1089 12.7544 11.1703 12.7042 11.23C12.6608 11.2911 12.6147 11.3492 12.5658 11.4042C12.4992 11.4858 12.4311 11.5631 12.3617 11.6358C12.3217 11.6842 12.2783 11.7342 12.2317 11.7775C12.1883 11.8275 12.1417 11.8717 12.1017 11.9117C12.0317 11.9817 11.9767 12.0342 11.9283 12.08L11.8142 12.1817C11.8064 12.1896 11.797 12.196 11.7867 12.2003C11.7764 12.2046 11.7653 12.2067 11.7542 12.2067H10.8783V13.3283H11.98C12.2258 13.3283 12.46 13.2417 12.65 13.08C12.7142 13.0242 12.9958 12.78 13.33 12.4117C13.3411 12.3994 13.3556 12.3907 13.3717 12.3867L16.4133 11.5058C16.4267 11.502 16.4408 11.5013 16.4544 11.5037C16.4681 11.5062 16.481 11.5118 16.4922 11.5202C16.5033 11.5285 16.5124 11.5393 16.5186 11.5517C16.5249 11.5641 16.5282 11.5778 16.5283 11.5917V12.2358Z" fill="black"/>
</g>
<defs>
<clipPath id="clip0_7675_3934">
<rect width="20" height="20" fill="white" transform="translate(0 0.5)"/>
</clipPath>
</defs>
</svg>
