<svg width="20" height="21" viewBox="0 0 20 21" fill="none" xmlns="http://www.w3.org/2000/svg">
<path d="M16.7775 17.0398L11.8869 9.35391L16.7127 4.04531C16.8218 3.92228 16.878 3.7612 16.8692 3.59697C16.8604 3.43275 16.7872 3.27862 16.6655 3.16801C16.5437 3.0574 16.3833 2.99923 16.219 3.00609C16.0547 3.01296 15.8997 3.08431 15.7877 3.20469L11.1908 8.26094L8.0275 3.28984C7.97109 3.20106 7.89319 3.12795 7.80101 3.07728C7.70883 3.02661 7.60535 3.00003 7.50016 3H3.75016C3.6381 2.99995 3.52808 3.03002 3.43163 3.08708C3.33518 3.14413 3.25585 3.22607 3.20194 3.32431C3.14802 3.42255 3.12152 3.53348 3.12519 3.64548C3.12886 3.75749 3.16258 3.86644 3.22281 3.96094L8.11344 11.6461L3.28766 16.9586C3.2313 17.0191 3.18752 17.0902 3.15886 17.1678C3.13019 17.2454 3.11721 17.3279 3.12066 17.4105C3.12411 17.4932 3.14393 17.5743 3.17897 17.6492C3.21401 17.7241 3.26357 17.7914 3.32477 17.847C3.38598 17.9026 3.45762 17.9455 3.53554 17.9733C3.61346 18.001 3.69611 18.013 3.77869 18.0085C3.86128 18.0041 3.94216 17.9833 4.01666 17.9474C4.09115 17.9114 4.15777 17.8611 4.21266 17.7992L8.80953 12.743L11.9728 17.7141C12.0297 17.8021 12.1078 17.8745 12.1999 17.9244C12.2921 17.9744 12.3953 18.0004 12.5002 18H16.2502C16.3621 18 16.472 17.9699 16.5683 17.9128C16.6646 17.8558 16.7439 17.774 16.7978 17.6759C16.8517 17.5778 16.8782 17.467 16.8746 17.3551C16.8711 17.2432 16.8375 17.1343 16.7775 17.0398ZM12.8431 16.75L4.88844 4.25H7.15406L15.1119 16.75H12.8431Z" fill="black"/>
</svg>
